<svg xmlns="http://www.w3.org/2000/svg" width="16" height="16" viewBox="0 0 16 16" fill="none">
<path d="M15.125 12.5C15.125 13.9497 13.9497 15.125 12.5 15.125C11.0503 15.125 9.875 13.9497 9.875 12.5C9.875 11.0503 11.0503 9.875 12.5 9.875C13.9497 9.875 15.125 11.0503 15.125 12.5Z" fill="#CD7F32"/>
<path fill-rule="evenodd" clip-rule="evenodd" d="M12.5 15.5625C14.1914 15.5625 15.5625 14.1914 15.5625 12.5C15.5625 10.8086 14.1914 9.4375 12.5 9.4375C10.8086 9.4375 9.4375 10.8086 9.4375 12.5C9.4375 14.1914 10.8086 15.5625 12.5 15.5625ZM12.5 16C14.433 16 16 14.433 16 12.5C16 10.567 14.433 9 12.5 9C10.567 9 9 10.567 9 12.5C9 14.433 10.567 16 12.5 16Z" fill="#CD7F32"/>
<path d="M6.125 12.5C6.125 13.9497 4.94975 15.125 3.5 15.125C2.05025 15.125 0.875 13.9497 0.875 12.5C0.875 11.0503 2.05025 9.875 3.5 9.875C4.94975 9.875 6.125 11.0503 6.125 12.5Z" fill="#C0C0C0"/>
<path fill-rule="evenodd" clip-rule="evenodd" d="M3.5 15.5625C5.19137 15.5625 6.5625 14.1914 6.5625 12.5C6.5625 10.8086 5.19137 9.4375 3.5 9.4375C1.80863 9.4375 0.4375 10.8086 0.4375 12.5C0.4375 14.1914 1.80863 15.5625 3.5 15.5625ZM3.5 16C5.433 16 7 14.433 7 12.5C7 10.567 5.433 9 3.5 9C1.567 9 0 10.567 0 12.5C0 14.433 1.567 16 3.5 16Z" fill="#C0C0C0"/>
<path d="M10.625 3.5C10.625 4.94975 9.44975 6.125 8 6.125C6.55025 6.125 5.375 4.94975 5.375 3.5C5.375 2.05025 6.55025 0.875 8 0.875C9.44975 0.875 10.625 2.05025 10.625 3.5Z" fill="#FFD700"/>
<path fill-rule="evenodd" clip-rule="evenodd" d="M8 6.5625C9.69137 6.5625 11.0625 5.19137 11.0625 3.5C11.0625 1.80863 9.69137 0.4375 8 0.4375C6.30863 0.4375 4.9375 1.80863 4.9375 3.5C4.9375 5.19137 6.30863 6.5625 8 6.5625ZM8 7C9.933 7 11.5 5.433 11.5 3.5C11.5 1.567 9.933 0 8 0C6.067 0 4.5 1.567 4.5 3.5C4.5 5.433 6.067 7 8 7Z" fill="#FFD700"/>
</svg>